PathFileType	4	(X/Y/Z)	C:\Users\WrightLab\Desktop\Jo\P4V129.trc
DataRate	CameraRate	NumFrames	NumMarkers	Units	OrigDataRate	OrigDataStartFrame	OrigNumFrames
100.00	100.00	       12	19	mm	100.00	172	       456
Frame#	Time	Headset_Front			Headset_Back			Headset_Left			Headset_Right			Left_Shoulder			Right_Shoulder			Sternum			C7			Left Elbow			Right Elbow			Left Wrist			Right Wrist			Left ASIS			Right ASIS			S2			Left Knee			Right Knee			Left Ankle			Right Ankle			
		X1	Y1	Z1	X2	Y2	Z2	X3	Y3	Z3	X4	Y4	Z4	X5	Y5	Z5	X6	Y6	Z6	X7	Y7	Z7	X8	Y8	Z8	X9	Y9	Z9	X10	Y10	Z10	X11	Y11	Z11	X12	Y12	Z12	X13	Y13	Z13	X14	Y14	Z14	X15	Y15	Z15	X16	Y16	Z16	X17	Y17	Z17	X18	Y18	Z18	X19	Y19	Z19	

172	1.710							-183.32056	1709.65808	676.99255	63.71360	1067.83081	790.62732	-156.77147	1521.67578	796.03217	92.36557	1564.75281	663.83942	-85.89012	1475.75623	633.87836	0.20418	1575.51331	769.05182	-204.68280	1167.28442	918.04651				-244.59550	863.40399	849.32599	269.94058	1549.65149	379.29047	-153.02911	1041.57300	712.36200	127.81709	1047.84070	528.58453				-255.67255	622.63232	569.68378	189.05795	566.58307	622.85712	-124.10125	114.44110	623.67694	235.74890	84.03887	802.33063	
173	1.720							-189.18495	1708.37500	668.14215	59.29695	1066.86938	781.94385	-160.54533	1520.64465	789.79620	86.56995	1563.76111	653.50415	-91.52773	1474.23181	625.85773	-4.52165	1574.08411	760.31622	-208.15190	1166.78455	912.21460				-250.78041	862.19855	846.96973	263.44174	1549.91028	369.91870	-157.89461	1040.20691	704.70990	121.98252	1045.73315	520.77740				-258.11053	618.79120	564.82819	186.24817	566.25751	620.41565	-150.80824	104.95419	602.31183	235.41315	84.61129	802.02722	
174	1.730							-195.42625	1706.97388	659.47980	54.51640	1065.77881	773.70441	-165.20845	1519.06995	782.06982	80.90771	1562.63721	643.13794	-96.97018	1472.57361	617.61829	-10.05397	1572.75732	751.55646	-213.35948	1166.39282	906.69855				-257.45169	861.81378	841.31616	256.56424	1550.40588	360.02432	-163.35321	1038.15955	696.76343	115.98989	1043.81311	512.20947				-262.59372	614.76868	560.61157	183.61533	565.61920	616.42908	-178.08817	95.97428	581.49310	234.96628	85.16660	801.85742	
175	1.740							-199.74040	1704.61426	650.46814	48.98039	1064.72949	765.07019	-170.45369	1517.68164	774.79614	75.14267	1560.88354	633.86469	-102.51624	1470.40576	609.14728	-13.91091	1570.67285	742.56158	-218.69730	1165.88684	900.65179				-264.49554	861.11597	838.35010	249.74683	1550.29651	350.77328	-168.83623	1036.62366	688.64050	110.06718	1041.30835	504.01047				-266.09424	610.39728	556.57281	180.06462	564.24536	613.20990	-205.62492	89.00098	561.55139	234.75810	85.53031	801.84149	
176	1.750							-204.68411	1702.73315	641.52899	43.37630	1063.17639	756.62769	-175.53531	1516.06116	766.53754	69.01855	1559.37903	623.78424	-108.48415	1468.72888	601.16473	-19.67030	1569.13037	734.01764	-223.81276	1165.27307	894.60785				-271.99319	860.49542	832.58649	242.81711	1550.09399	342.30176	-174.96356	1034.59131	680.25879	104.49162	1039.54285	496.26929				-269.18805	605.10803	552.33636	176.97243	563.82153	609.48431	-231.55673	83.15264	542.53955	234.04948	86.34771	800.57233	
177	1.760							-210.99927	1701.24023	632.92493	36.66554	1061.46936	748.71747	-180.46033	1514.60193	758.43347	63.11125	1557.65930	616.07257	-114.40971	1466.78613	592.95282	-25.47795	1567.48218	725.55499	-229.46684	1163.80713	888.44250				-280.54285	859.78271	827.71448	235.87929	1550.03442	332.63016	-181.48801	1032.47327	671.66217	98.42697	1037.18994	487.43228				-272.53516	600.04938	548.25488	174.14197	563.18591	605.19318	-257.64688	78.58399	525.89984	233.34474	87.23694	800.47498	
178	1.770							-216.37799	1699.28540	624.10352	29.78417	1059.65027	739.90625	-186.05025	1512.88428	750.59534	57.30814	1555.76062	608.46924	-120.69734	1464.75049	584.98987	-31.30003	1565.86389	717.02478	-235.43964	1163.22253	881.99622				-288.24036	858.65411	823.66565	228.12616	1549.96033	323.72903	-187.96188	1030.54163	662.94965	92.74249	1035.02539	479.67343				-275.83075	595.21210	543.96680	170.24083	561.99976	602.13385	-281.47366	76.24682	510.90839	232.96013	88.67754	800.48608	
179	1.780							-222.27011	1697.56555	615.50433	23.32596	1058.34875	732.15631	-191.51930	1511.00659	742.39862	50.67327	1554.04773	598.88544	-126.69748	1462.87598	576.74469	-37.15908	1564.16077	708.61932	-241.69292	1162.45642	875.55066				-296.79654	857.89447	818.03033	221.31956	1549.09753	314.89026	-194.85574	1028.28247	653.72223	87.15697	1033.21594	471.83810				-280.40613	590.83441	540.23212	166.07401	561.46295	596.54504	-302.56601	75.27847	497.45093	232.21104	90.07043	799.71686	
180	1.790							-228.64735	1695.90100	606.94586	16.32136	1056.66443	723.77527	-197.48862	1509.48303	734.17975	44.29286	1552.28027	589.69922	-132.80908	1461.21008	568.57587	-43.00915	1562.51685	700.28314	-248.79320	1161.34387	868.74573				-306.18851	857.96655	810.87299	214.19106	1548.23804	305.91397	-201.44789	1026.38855	644.85089	81.06625	1030.92310	463.35736				-285.56116	586.32159	535.85791	162.28453	560.66901	592.01563	-320.99850	74.05076	485.47815	231.70915	91.68430	799.32367	
181	1.800							-234.88507	1693.86414	598.34949	9.00001	1053.98352	715.20862	-203.38248	1508.21155	726.12537	37.88728	1550.86719	580.91119	-139.17468	1459.44385	560.40863	-48.90376	1560.52661	692.03546	-255.04628	1160.70532	861.60944				-315.14624	857.30780	804.54144	206.90302	1547.36450	297.60953	-207.95834	1023.83167	635.10327	74.56023	1029.37451	455.77267				-291.45850	582.87012	531.68109	159.18950	560.42731	585.52478	-336.90219	73.59531	474.88431	230.56146	93.72423	798.94135	
182	1.810							-240.73079	1692.30347	589.54620	1.07674	1052.35217	707.29803	-210.27097	1506.65735	718.98920	31.61121	1549.21997	573.27008	-145.71870	1457.73645	552.29016	-55.13069	1558.84644	683.87750	-262.59909	1159.46008	854.54150				-324.48059	856.48157	797.98877	200.23238	1546.39539	289.44098	-215.13609	1022.15430	626.47321	68.28767	1027.45276	447.59201				-298.07364	580.35498	527.48724	154.44360	559.74512	579.39240	-348.98737	72.04093	465.64468	229.72800	95.86272	797.77045	
183	1.820							-247.14265	1690.93384	580.74658	-6.89047	1051.28088	699.94458	-216.23737	1505.22485	710.68445	25.14478	1547.51343	565.14795	-152.42256	1456.32239	544.68274	-61.61996	1557.22595	675.82098	-269.91437	1158.64343	847.51678				-334.06644	856.11871	790.77087	192.57413	1545.12878	280.62103	-221.75703	1020.20984	616.68616	61.40694	1025.68652	439.03110				-305.64581	578.01941	523.32916	148.48810	559.50726	573.17969	-360.04974	69.78465	458.45117	229.23694	98.17086	796.64697	
